# xmcd
#
# Track frame offsets:
#	182
#	10740
#	27107
#	46192
#	61092
#	76627
#	90420
#	104615
#	121662
#	135887
#	146375
#	163077
#	183795
#	192045
#	205077
#	234590
#	246500
#	255952
#	272660
#	281922
#	298550
#	312165
#
# Disc length: 4333
#
# Revision: 1
# Processed by: cddbd v1.5.1PL0 Copyright (c) Steve Scherf et al.
# Submitted via: CDex 1.51
# Normalized: r0:TRMNUM
#
DISCID=1a10eb16
DTITLE=Various Artist - COUNTRY POHODA 1
DYEAR=2002
DGENRE=Country
TTITLE0=Michal Tucny and Fesaci - Hotel Zvon
TTITLE1=Pavel Bobek - Muz na konci sveta
TTITLE2=Waldemar Matuska - Tajna laska
TTITLE3=Rangers - Tvym snum zlym
TTITLE4=Karel Kahovec - Dlouhy schody
TTITLE5=Vera Martinova - Atmosfera letnich bourek
TTITLE6=Mirek Hoffman - Sam ted jezdim bilou dalnici
TTITLE7=Petr Spaleny - Co s tvou laskou
TTITLE8=Jaroslav Uhlir - Severni vitr
TTITLE9=Nada Urbankova - V udoli blizko drahy
TTITLE10=Pavel Brumer - Hvezda countryon
TTITLE11=Michal Tucny - Modra z dzin
TTITLE12=Eva Olmerova - Bila mriz
TTITLE13=Milan Drobny - Pada dest
TTITLE14=Waldemar Matuska - Jsem svym panem
TTITLE15=Ladislav Vodicka - Ridic ma tvrdy chleb
TTITLE16=Michal Tucny - Ja tajne cvicim
TTITLE17=Vera Martinova - Par havranich copanku
TTITLE18=Rangers - Kral silnic
TTITLE19=Petr Spaleny - Lenko
TTITLE20=Pavel Bobek - Pojd se mnou touhle ulici
TTITLE21=Matuska and Blechova - Kousek lasky zustal ve strunach
EXTD=YEAR: 2002
EXTT0=
EXTT1=
EXTT2=
EXTT3=
EXTT4=
EXTT5=
EXTT6=
EXTT7=
EXTT8=
EXTT9=
EXTT10=
EXTT11=
EXTT12=
EXTT13=
EXTT14=
EXTT15=
EXTT16=
EXTT17=
EXTT18=
EXTT19=
EXTT20=
EXTT21=
PLAYORDER=
